<?xml version="1.0" encoding="utf-8"?>
<!-- Generator: Adobe Illustrator 24.0.1, SVG Export Plug-In . SVG Version: 6.00 Build 0)  -->
<svg version="1.1" id="Layer_1" xmlns="http://www.w3.org/2000/svg" xmlns:xlink="http://www.w3.org/1999/xlink" x="0px" y="0px"
	 viewBox="0 0 417.8 88.2" style="enable-background:new 0 0 417.8 88.2;" xml:space="preserve">
<style type="text/css">
	.st0{fill:#8C181B;}
</style>
<title>Asset 1</title>
<path class="st0" d="M2.3,20.1L0,2.9c7.2-1.5,7.7-1.3,8.8,1.5l6-3.1v36.8c0.3,1.1,0.7,2.2,1.1,3.2c0.8,1.5,1.7,2.9,2.7,4.3
	c1.1-1.3,2.5-2.4,3.2-3.9c0.7-1.7,1.3-3.4,1.7-5.2c-0.7-3.5-1.7-6.2-1.7-8.8c0.1-3.8,2.6-8.7,1-11c-2.6-3.8-0.2-7.4-1.6-10.7
	c-0.4-0.9,1.1-3.7,1.7-3.7c4.7-0.1,9.4,0.3,15,0.5c-1,7.4-2.3,14.4-2.9,21.5c-1,12-1.5,24.1-2.3,36.1c0,0.2-0.3,0.5-0.5,0.7
	c-0.8-3-1.7-6.1-2.5-9.2l-1.5-0.1L26.1,57l-1.3-1.8L23.4,55c-1.1,6.2-2.3,12.4-3.3,18.2l-3.9-19.1l-1.7-0.1l-3.2,7.6
	c-0.7-3.3-0.4-7.6-2.3-9.2c-3.5-2.9-3.7-6.5-4.5-10c-1.2-5.3-2-10.8-2.6-16.2c-0.2-1.9,0.8-4,1.3-5.9L2.3,20.1z"/>
<path class="st0" d="M245.9,6.1c0.3-4-3.6-2.3-5.8-1.7c-1.2,0.4-2.3,3-2.5,4.7c-0.7,6.7-1,13.4-1.5,20.1l-2.1,0.4
	c-2.2-5.5-4.3-11.1-6.5-16.7c-2.3,6.2-4.6,12.1-6.9,18.1l-1.3-0.1l-3.2-28.3l-6.4,0.5c0.3,3,0.5,5.7,0.8,8.3c-3.1-9-3.1-9-7.9-7.5
	c1.3,12.7,2.6,25.3,3.9,37.5l1.3-5.3h1l3,22.4l-1.6,0.6c-5.5-4.7-11.4-9-16.1-14.4c-2-2.2-1.6-6.7-2.1-10.2c0-0.3,1.6-0.7,3.1-1.4
	l2.6-4.4l2.3,2.6c0-5.3,1.3-11.6-0.3-17c-1.6-6.1-6.6-10.7-12.9-11.8c-2.5-0.4-4.8-1.8-7.3-2.7h-4l-2.1,3.3
	c-3.6-3-10.4-2.6-14.1,0.4c1.2,3.6,2.4,7,3.5,10.4c1,3.3,2,6.6,2.9,9.4c0,6-0.4,12,0.1,17.7c0.5,5.8-0.7,11.3,3.3,17.3
	c3.4,5.1,2,13.4,2.8,20.3c0.7-4.4,0.6-8.7,0.8-13c0.1-2.1,0.3-5.9,1.1-6.1c5-1.1,2.4-4.8,2.6-7.1c0.5-4.2,0.1-8.4,0.1-12.6l1.5-0.3
	l5.3,10.7c0.7-0.4,1.4-0.7,2.2-0.9c2.5,3.9,4.9,7.8,7,11.4v-6.1l11.9,8.1l1.9-2.1l-8.1-3.8l1.9-2.2c3.7,1.8,7.9,3.1,10.9,5.8
	c1.6,1.4,0.9,5.2,1.2,7.5c0.3-2.4,0.8-5.3,1.2-8.2h1.7c1.7,9.1,3.4,18.3,5.3,28.4V60.9l1-0.1c0.2,1.1,0.5,2.2,0.7,3.3l1.1-0.1V48.9
	l1-0.1l0.9,3.7c0.6-4,1.1-7.8,1.6-11.6l1.7-0.1l2.7,15.6l1.4-0.6l2.8,16.2l1.1-0.4c0.6,3.4,1.3,6.8,1.9,10.2l1.3-0.2V60h1.6l0.7,9.6
	c0.5-7.6,1.1-15.7,1.7-23.8l2,0.1c0.5,4.4,1,8.8,1.6,14.4c0.9-11.5-1.4-22,0.8-32.2h1.3c0.2,3.1,0.5,6.2,0.6,8l4.4-32.6L245.9,6.1z
	 M184.8,25.2c-2,1.5-4.5,2.4-7.8,4c0,0,0,0,0,0c0,0,0,0,0,0c-0.2-4-0.4-6.5-0.6-10.3c2.9,0.6,5.7,1.4,8.4,2.5c0,0,0.1,0,0.1,0.1
	C185.3,22,185.4,24.8,184.8,25.2z"/>
<path class="st0" d="M102.1,2.9c-1.5-0.3-3.3,0.5-5.3,0.8L91.7,0h-15c-2.3,1.2-4.6,3.1-6.9,3.4c-2.3,0.3-4.8-1-7.2-1.6
	c0.9,8.8,1.8,16.3,2.7,24.9c-4-2.6-7.6-3.8-9.6-6.3C50.5,14.1,46,7.2,41.3,0.5l-1.8,0.8C40.5,7.5,38,14,42.2,19.9
	c-3.8,7.6,0.2,15.6,0.2,23.4c0,8.3,1,16.6,1.7,26.4l1.5-6.9h1.2l2.6,16.5V63.1l1.1-0.1l1.7,8.4l0.6-0.1V38.4
	c6.1,2.3,4.8,7.7,6.3,11.4l2-3.5h1.4c1.2,4.8,2.5,9.5,4,15.6c0.7-3.8,1.2-6.3,2-10.1c1.3,3,2,4.6,2.8,6.5l3.2-4.3
	c1.7,10.7,3.1,20.1,4.7,29.4c0.3-26-1.9-51.9,0.7-78.2c0.7,0.2,1.2,0.8,1.4,1.5c4.3,9.1,3.5,19.2,5,28.8c1.4,8.6,0.9,17.5,1.3,27.6
	l4.9-7l1,0.4c0.5,5.3,1.1,10.6,1.6,15.6l3.1-15.8l1.6,0.2l1.3,3.5c1.1-1.9,2.2-3.8,3.2-5.6l1.4,0.4c0,3.3-0.2,6.5,0,9.8
	s0.7,6.5,1,9.8c1.4-18.5,2.8-25.4,6.3-27.7c0.4,1.6,0.7,3.1,1.1,4.9c1.7-7.9,2.9-15.4,4.9-22.7C122.7,15.5,111.9,5.1,102.1,2.9z
	 M109.5,29.3c-0.4,2.5-0.6,5.1-0.7,7.6c-1,1.6-2.2,3.2-3.5,4.6c-0.4,0.4-0.8,0.7-1.2,1.1c-1.5,1.3-3.2,2.5-5,3.4
	c-1.2,0.3-2.4-0.1-3.2-0.9c-0.5-0.9-0.9-2.2-0.8-3.3c0-0.4,0.1-0.7,0.2-1c0.9-1.8,1.2-3.6,1.2-5.3c-0.1-2.6-0.9-5.1-1.8-7.8
	c-0.1-0.3-0.2-0.6-0.3-0.9c5,0.2,2.4-4.6,3.7-7.5c0,0,0,0,0,0c0,0,0,0,0,0c0.3,0,0.6,0.1,0.8,0.1c2.2,0.3,4.4,0.3,6.3,1.1
	c0.1,0,0.2,0.1,0.3,0.1C109.1,22.2,110.3,25.3,109.5,29.3z"/>
<path class="st0" d="M371.2,38.9c-3.7,0.5-7.5,1.2-11.2,1.5c-3.3,0.3-5.2-1.6-4.6-4.9c0.7-4.2-1.5-8.1-0.3-12.5
	c1.3-4.7,0.7-9.9,1.3-14.8c0.8-6.4,0-7.2-6.9-5.5v7.7c-1-1.6-1.1-3.5-1.9-5c-0.7-1.3-2.1-2.1-3.2-3.1c-0.6,1.3-1.7,2.6-1.6,3.9
	c0.4,6.8,1,13.5,1.6,20.3c0.3,3.6,0.2,7.4,1.5,10.7c2.3,6.2,1.8,12.5,1.1,19.3c-5.5-4.1-10.5-8.7-15-13.9c-1.4-1.7-0.6-5.4-0.6-8.1
	c0-0.4,1.6-0.8,2.9-1.3c0.5-1,1.4-2.9,3-6.1l2.1,5.2c0-6.1,0.2-11.8-0.1-17.5c-0.1-3.6-8.3-10.7-12.9-12c-2.6-0.8-5.2-1.8-7.8-2.8
	h-4l-2.1,3.3c-3.6-3-10.5-2.5-13.9,0.6c2.2,6.9,4.4,13.6,6.7,21.1c-0.3,1.2-0.5,2.4-0.6,3.6c-0.1,4.2-0.1,8.4,0.1,12.6
	c0.2,6,0.1,11.6,3.4,17.7c3,5.6,2,13.4,2.7,20.2c0.7-4.5,0.5-9,0.7-13.5c0.1-2.1,0.5-6,1.2-6.1c5.1-0.7,2.4-4.4,2.7-6.5
	c0.5-4.3,0.1-8.7,0.1-13l1.7-0.3l5.2,11.3c1.8-2.2,4.1-1.8,5.5,1.6c1.2,2.9,1.9,6,2.9,9l0.7-0.1v-6.6l11.8,8l0.7-0.8l-5.5-6.1l1-1.1
	c2.2,1.3,4.5,2.5,6.6,3.9c2.7,1.8,2.5,1.9,3.2-1.4c0.4-1.1,1-2.1,1.7-3.1l1.6,0.1c0.5,4,1,7.9,1.5,12.1c0.6-3.4,1.2-6.5,1.8-9.6h1.3
	c1.1,6.1,2.2,12.2,2.9,16.4c0.6-4.6,1.3-11.1,2.1-17.3c1.4-0.1,1.6-0.2,1.7-0.1c0.5,0.6,1,1.2,1.5,1.8l5-4.1
	c0.9,8.1,1.7,15,2.5,21.9h0.2l0.9-18.8l1.7,0.1l0.4,6.7h0.5c0.4-8.3,0.7-16.5,1.1-25.4C375,38.3,373.1,38.6,371.2,38.9z M323.8,25.2
	C323.8,25.2,323.8,25.2,323.8,25.2C323.8,25.2,323.8,25.2,323.8,25.2c-2,1.5-4.5,2.4-7.8,4h0c0-0.5-0.1-1-0.1-1.5
	c-0.2-3.3-0.3-5.6-0.5-8.8c0,0,0,0,0,0c0,0,0,0,0,0c3.4,0.9,6,1.4,8.5,2.5c0.5,0.2,0.6,3,0.1,3.7C323.8,25.2,323.8,25.2,323.8,25.2
	C323.8,25.2,323.8,25.2,323.8,25.2z"/>
<path class="st0" d="M400,2.9c-1.5-0.3-3.2,0.4-5.3,0.7l-5-3.7h-15c2.8,5.5,6.7,10.8,8.3,16.7c1.6,6,1.2,12.6,1.5,18.9
	c0.4,8.4,0.7,16.7,1.1,26.4l5.9-6.8c0.7,6.5,1.2,11.8,1.7,17.1c1-5.4,2-10.7,3-16.1h1.4c0.6,1.3,1.1,2.6,1.6,3.7
	c1.1-1.8,2.2-3.7,3.4-5.6l1.2,0.5c0,3.3-0.2,6.6,0,9.8s0.7,6.5,1,9.7c1.1-15.8,2.7-24.6,6.1-28.1c0.5,2,0.9,3.7,1.4,5.7
	c1.6-7.8,2.5-15.4,4.7-22.7C421,15.9,409.8,4.9,400,2.9z M407.5,29.4c-0.5,2.4-0.4,4.9-0.5,7.8c-4.6,1.4-4.3,10.8-13.7,8.5
	c0.3-1.9,0.6-4,0.8-6.1c0.2-1.6,0.3-3.2,0.3-4.8c0-0.3,0-0.5,0-0.8c0-0.8-0.1-1.5-0.2-2.2c-0.2-1.4-0.7-2.7-1.5-3.7
	c1.5-3.1,2.8-5.8,4.2-8.8c0,0,0,0,0,0h0l0,0c1.9,0.4,4.5,0.4,6.7,1.4C407.2,22.4,408.5,25.4,407.5,29.4z"/>
<path class="st0" d="M296.8,23.3c-0.7-5.7-1.7-11.8-7.2-16.1c-5.9-4.7-12-7.1-19.1-4.4c-3.3,1.3-6.2,3.7-9.2,5.7
	c-4.4,3-5.4,13.1-1.5,16.8c-5.9,1-3.9,5.4-3.6,8.7c0.5,4.6,1.6,9.1,2.5,13.7c0.1,0.4,0.2,0.8,0.4,1.1l3.6-2.9
	c0.9,4.7,1.7,8.5,2.4,12.1c0.6-1.8,1.3-3.7,2-5.7l1,0.2c1,4.3,1.9,8.7,3,13.7c0.7-2.8,1.2-4.9,1.7-6.9h1c1,7.2,2,14.4,3,21.6
	c0.4-1,0.6-2,0.5-3.1c0.4-6.8,0.7-13.6,1.6-20.3c0.2-1.3,2.7-2.3,4.1-3.4c0.9,1.4,2.1,2.6,2.5,4.1c0.3,1.5,0.5,3,0.4,4.5
	c1.2-4,2.7-9,4.3-14.1l1.8,0.3c0.4,2,0.9,4,1.3,6l0.7,0V43.5h0.9l1.5,5.2C297.1,40.2,297.8,31.6,296.8,23.3z M284.8,39.4
	c0,0.1,0,0.1-0.1,0.2c-0.1,0.4-0.2,0.8-0.3,1.1c-0.1,0.2-0.1,0.3-0.2,0.5c-0.1,0.3-0.2,0.6-0.4,0.8c-0.1,0.2-0.2,0.4-0.4,0.6
	c-0.1,0.1-0.2,0.3-0.3,0.4c-0.2,0.3-0.5,0.6-0.7,0.9c0,0,0,0,0,0c-1.4,1.5-3.3,2.4-5.5,2.8c-3.3,0.6-4.9-2.1-6.6-4.8
	c-1.6-2.7-2.5-6.1-2.5-9.7c0-4.5,1.3-9.2,4-12.4c0.7-1,1.3-2.1,1.8-3.3c6.3,3,13.2,5.9,13.2,15C286.1,34.1,285.4,36.7,284.8,39.4z"
	/>
<path class="st0" d="M118.4,2.4c1,1.2,1.9,2.4,2.8,3.7c1.9,3.2,5.8,7.3,5,9.6c-2.7,7.6,2.2,14.4,0.4,22c-1.5,6.3,0.3,13.4,0.7,20.8
	l4.4-3.1c0.6,6.1,1.1,11.4,1.5,15l2.2-13.8h1.3c0.5,2.2,1.1,4.4,1.5,6.1c0.3-1.4,0.6-3.3,0.9-5.3h1.5c3.8,6.4,2.1,13.9,3.6,20.7
	l1.1-22.8l1.5-0.1l2.3,6.5l0.6-0.1v-7.4l1.1-0.1l1.8,4.3c-0.4-5.4-0.9-10.2-1.3-14.9l-1.4,0.5c-1.1-1.8-2.8-3.5-3.1-5.5
	c-0.5-3.7-0.3-7.4-0.4-11.1l1.9,2.3c0.2-2.5,0.4-5,0.7-7.5l2.2-0.2l4.1,23.3h0.6v-43H118.4z M135.9,27.7l-0.5-8.9l0,0l0,0l3.9,3.1
	l5.7-1.9c0.4,2.4,0.8,4.8,1.2,7.3l0,0c0,0,0,0,0,0l0.2,0c-0.1,0.1-0.1,0.1-0.2,0.2c0-0.1,0-0.1,0-0.2L135.9,27.7z M147.8,43.1
	l-7.4,2.6V38v0l1.3-0.6L147.8,43.1z"/>
</svg>
