<svg xmlns="http://www.w3.org/2000/svg" viewBox="0 0 417.81 88.2"><defs><style>.cls-1{fill:#8c181b;}.cls-2{fill:#fff;}</style></defs><title>Asset 1</title><g id="Layer_2" data-name="Layer 2"><g id="Layer_1-2" data-name="Layer 1"><path class="cls-1" d="M179.67,0c2.42.92,4.76,2.26,7.27,2.69a16,16,0,0,1,12.87,11.75c1.59,5.43.34,11.69.34,17l-2.25-2.62-2.59,4.4c-1.46.64-3.09,1.12-3.06,1.37.48,3.5.05,8,2.06,10.24,4.75,5.36,10.68,9.67,16.13,14.4l1.61-.59-3-22.4H208l-1.34,5.31c-1.29-12.24-2.61-24.81-3.94-37.52,4.78-1.43,4.78-1.43,7.86,7.54-.25-2.66-.5-5.32-.78-8.35l6.38-.48L219.36,31l1.25.13c2.27-6,4.54-11.93,6.88-18.1q3.25,8.37,6.5,16.68l2.1-.4c.46-6.71.76-13.43,1.46-20.12.18-1.71,1.28-4.33,2.51-4.71,2.23-.7,6.1-2.31,5.81,1.65l8.48-2.58L250,36.15c-.13-1.79-.36-4.89-.59-8l-1.3,0c-2.24,10.18.07,20.61-.83,32.16-.63-5.65-1.11-10-1.6-14.43l-2-.07c-.57,8.09-1.13,16.19-1.66,23.79L241.33,60h-1.61V81.81l-1.3.17q-.93-5.12-1.87-10.24l-1.11.41-2.82-16.21-1.38.56-2.72-15.65-1.69.11c-.54,3.81-1.07,7.61-1.64,11.62l-.89-3.73-1.05.06V64l-1.1.11c-.23-1.1-.45-2.2-.68-3.3l-1.05.07V88.2c-1.9-10.08-3.62-19.22-5.33-28.36l-1.73,0c-.41,2.88-.81,5.76-1.16,8.19-.28-2.29.38-6.14-1.17-7.52-3-2.66-7.21-3.92-10.91-5.75l-1.85,2.19,8.11,3.79-1.9,2.1-11.94-8.09v6.06c-2.14-3.56-4.5-7.52-7-11.38a11,11,0,0,0-2.17.93l-5.28-10.7-1.54.34c0,4.2.33,8.44-.13,12.59-.26,2.32,2.39,6-2.62,7.08-.79.16-1,4-1.11,6.09-.16,4.31-.05,8.63-.76,13-.74-6.88.62-15.16-2.78-20.26-4-6-2.79-11.54-3.27-17.3s-.11-11.68-.11-17.71c-.86-2.82-1.82-6.12-2.86-9.38-1.1-3.43-2.28-6.83-3.47-10.38,3.73-3,10.45-3.42,14.09-.45L175.67,0Zm-3.33,18.93c.23,3.8.37,6.31.61,10.27,3.27-1.59,5.76-2.48,7.79-4,.65-.48.53-3.56,0-3.8A61.07,61.07,0,0,0,176.34,18.93Z"/><path class="cls-1" d="M91.67,0,96.8,3.71c2-.33,3.75-1.12,5.26-.79,9.82,2.18,20.61,12.58,17.08,25.87-2,7.32-3.22,14.83-4.89,22.69-.44-1.86-.78-3.34-1.15-4.92-3.52,2.25-4.91,9.2-6.34,27.67-.33-3.26-.8-6.51-1-9.78s0-6.51,0-9.76l-1.36-.42c-1.06,1.83-2.13,3.66-3.24,5.59L99.86,56.4l-1.57-.23L95.18,72c-.51-5-1.06-10.31-1.61-15.64l-1-.44-4.93,7c-.39-10.1.08-19-1.27-27.63-1.49-9.59-.74-19.65-5-28.75a2.27,2.27,0,0,0-1.44-1.5c-2.59,26.3-.38,52.25-.72,78.23C77.66,74,76.22,64.66,74.56,53.92l-3.18,4.34c-.85-1.93-1.55-3.54-2.84-6.49-.77,3.83-1.27,6.36-2,10.11-1.55-6.06-2.77-10.83-4-15.6l-1.42,0-2,3.49c-1.51-3.67-.19-9.07-6.28-11.36V71.32l-.63.06L50.51,63l-1.12.1v16.2L46.75,62.83h-1.2L44,69.73c-.66-9.76-1.68-18.07-1.65-26.38,0-7.86-3.93-15.81-.17-23.43C38,14,40.55,7.47,39.46,1.34L41.27.55C46,7.19,50.55,14.06,55.71,20.38c2,2.46,5.53,3.71,9.58,6.3-.92-8.6-1.73-16.11-2.67-24.86C65,2.4,67.5,3.69,69.77,3.38S74.38,1.19,76.67,0Zm2.71,26.75c1.56,4.8,3.36,9.12.94,14.08-.54,1.11-.08,3.1.61,4.28a3.39,3.39,0,0,0,3.24.92,29.28,29.28,0,0,0,6.2-4.53,31,31,0,0,0,3.48-4.58,61.94,61.94,0,0,1,.66-7.65c.83-4-.38-7.06-4-8.63-2.2-1-4.85-.91-7.39-1.34C96.76,22.13,99.34,26.93,94.38,26.75Z"/><path class="cls-1" d="M318.67,0c2.59.93,5.13,2,7.77,2.76,4.6,1.26,12.76,8.44,12.88,12,.21,5.71.06,11.44.06,17.55l-2.12-5.22c-1.57,3.18-2.52,5.1-3,6.07-1.34.57-2.93.93-2.94,1.32,0,2.76-.83,6.41.61,8.14a92.61,92.61,0,0,0,15,13.91c.68-6.84,1.21-13.07-1.1-19.29-1.22-3.3-1.11-7.11-1.45-10.7-.62-6.74-1.24-13.49-1.61-20.25-.07-1.27,1.06-2.61,1.64-3.91,1.09,1,2.53,1.87,3.19,3.13.8,1.51.94,3.37,1.92,5V2.77c6.86-1.69,7.65-.93,6.89,5.5-.57,4.92,0,10.08-1.3,14.79-1.18,4.4,1,8.29.29,12.48-.55,3.28,1.29,5.14,4.62,4.87,3.75-.31,7.47-1,11.2-1.5,1.91-.28,3.81-.65,6.48-1.12-.4,8.94-.76,17.19-1.13,25.44l-.51,0-.39-6.66-1.7-.11-.9,18.78h-.24c-.77-6.89-1.54-13.78-2.45-21.9l-5,4.07c-.46-.56-1-1.17-1.48-1.76-.06-.07-.3,0-1.71.11-.75,6.23-1.53,12.7-2.09,17.32-.75-4.24-1.83-10.33-2.92-16.42l-1.34,0c-.57,3.11-1.13,6.21-1.75,9.56-.51-4.16-1-8.13-1.49-12.1L351,54a12,12,0,0,0-1.67,3.07c-.67,3.29-.51,3.22-3.22,1.4-2.1-1.42-4.36-2.6-6.56-3.88l-1,1.13L344,61.86l-.68.84-11.83-8v6.6l-.69.13c-.95-3-1.7-6.08-2.89-9-1.4-3.39-3.65-3.73-5.46-1.57l-5.19-11.26-1.66.33c0,4.32.34,8.69-.14,13-.24,2.12,2.43,5.86-2.66,6.53-.66.09-1.07,3.94-1.16,6.07-.17,4.49,0,9-.72,13.52-.74-6.83.33-14.66-2.72-20.23-3.3-6.05-3.18-11.65-3.41-17.68-.16-4.2-.15-8.41-.06-12.62a18.93,18.93,0,0,1,.6-3.56C303,17.5,300.81,10.77,298.6,3.86,302,.74,308.91.23,312.54,3.27L314.67,0Zm-2.74,29.24c3.32-1.62,5.8-2.51,7.82-4,.65-.48.53-3.56,0-3.79-2.4-1.08-5.07-1.57-8.45-2.5C315.53,22.62,315.68,25,315.93,29.24Z"/><path class="cls-1" d="M389.67,0l5,3.66c2.13-.32,3.84-1.05,5.35-.74,9.76,2,20.95,13,17,26.29-2.16,7.25-3.13,14.85-4.71,22.66-.5-2-.92-3.71-1.41-5.72-3.37,3.53-5,12.28-6.1,28.11-.34-3.25-.81-6.49-1-9.74s0-6.55,0-9.83l-1.22-.45c-1.16,1.93-2.32,3.86-3.38,5.64-.47-1.09-1-2.37-1.59-3.65l-1.38,0q-1.49,8-3,16.08c-.54-5.29-1.06-10.55-1.72-17.1l-5.91,6.75c-.4-9.66-.68-18-1.1-26.35-.32-6.32.11-12.89-1.53-18.87S377.51,5.55,374.67,0Zm3.6,45.74c9.37,2.29,9.11-7.1,13.71-8.54.17-2.88,0-5.43.55-7.79,1-4.05-.37-7-3.89-8.62-2.18-1-4.81-1-6.73-1.41-1.4,3-2.68,5.66-4.17,8.8,2.25,2.8,1.76,7.17,1.36,11.49C393.91,41.76,393.54,43.83,393.27,45.74Z"/><path class="cls-1" d="M293.22,54.74c-.43-2-.85-4-1.28-6l-1.82-.26c-1.53,5.06-3.06,10.12-4.25,14.08a17.66,17.66,0,0,0-.4-4.48c-.41-1.48-1.66-2.73-2.54-4.08-1.42,1.14-3.92,2.14-4.09,3.44-.87,6.71-1.16,13.5-1.61,20.27a6.25,6.25,0,0,1-.47,3.06q-1.49-10.77-3-21.56l-1,0c-.49,2-1,4.07-1.69,6.92-1.1-5-2.05-9.35-3-13.67l-1-.24c-.69,1.95-1.38,3.91-2,5.67-.7-3.54-1.46-7.39-2.39-12.07l-3.56,2.94a7.28,7.28,0,0,1-.37-1.14c-.89-4.55-2.05-9.07-2.52-13.66-.33-3.3-2.29-7.71,3.61-8.69-3.87-3.7-2.86-13.8,1.53-16.78,3-2,5.89-4.41,9.2-5.66,7.15-2.72,13.18-.33,19.11,4.36,5.5,4.34,6.48,10.42,7.15,16.14,1,8.31.25,16.82-.61,25.35l-1.48-5.22h-.86V54.72ZM287,31.56c0-9.13-6.88-12-13.19-15A15.94,15.94,0,0,1,272,19.85c-4.78,5.68-5.21,16-1.48,22,1.69,2.76,3.25,5.47,6.56,4.85,3.83-.73,7-2.85,7.74-7.38A64.19,64.19,0,0,1,287,31.56Z"/><path class="cls-1" d="M2.32,20.11,0,2.89C7.15,1.42,7.69,1.58,8.79,4.41l6-3.1V38.13a21,21,0,0,0,1.15,3.19,47.82,47.82,0,0,0,2.67,4.29c1.1-1.29,2.52-2.42,3.24-3.89a31.27,31.27,0,0,0,1.73-5.23c-.73-3.55-1.73-6.16-1.69-8.76.06-3.77,2.57-8.67,1-11C20.32,12.92,22.72,9.38,21.28,6,20.91,5.1,22.34,2.34,23,2.33c4.69-.11,9.4.26,15,.51-1,7.36-2.31,14.37-2.89,21.45-1,12-1.52,24.08-2.27,36.12,0,.23-.32.45-.49.68-.83-3.05-1.67-6.12-2.5-9.18l-1.52-.12L26.09,57l-1.32-1.84L23.41,55c-1.13,6.2-2.26,12.4-3.31,18.22L16.23,54.17l-1.68-.07L11.3,61.71c-.73-3.32-.39-7.62-2.31-9.2C5.5,49.63,5.31,46,4.53,42.46a143.33,143.33,0,0,1-2.59-16.2c-.2-1.92.8-4,1.26-5.94Z"/><path class="cls-1" d="M146.4,27.2c.08,3.82-.17,7.68.38,11.43.29,1.94,2,3.67,3.06,5.49l1.43-.55c.4,4.76.81,9.52,1.26,14.91l-1.81-4.26-1.14.06v7.39l-.58.11-2.27-6.47-1.45.08-1.11,22.78c-1.52-6.84.25-14.36-3.6-20.72h-1.45c-.34,1.93-.67,3.85-.92,5.25-.41-1.68-.95-3.87-1.49-6.06l-1.34,0-2.23,13.78c-.35-3.57-.86-8.83-1.45-14.95l-4.38,3.06c-.38-7.47-2.15-14.53-.69-20.84,1.75-7.55-3.1-14.38-.42-21.95.83-2.34-3.13-6.41-5-9.64a43.7,43.7,0,0,0-2.81-3.69h37.39V45.45h-.55l-4.11-23.32-2.18.18q-.34,3.75-.67,7.53l-2-2.51c-.4-2.47-.81-4.92-1.23-7.38l-5.74,1.93-3.87-3.06.46,8.91Zm1.4,15.89-6.13-5.74-1.28.6v7.73Z"/><path class="cls-2" d="M176.34,18.93a61.07,61.07,0,0,1,8.42,2.49c.51.24.63,3.32,0,3.8-2,1.5-4.52,2.39-7.79,4C176.71,25.24,176.57,22.73,176.34,18.93Z"/><path class="cls-2" d="M94.38,26.75c5,.18,2.38-4.62,3.75-7.45,2.54.43,5.19.38,7.39,1.34,3.61,1.57,4.82,4.64,4,8.63a61.94,61.94,0,0,0-.66,7.65,31,31,0,0,1-3.48,4.58A29.28,29.28,0,0,1,99.17,46a3.39,3.39,0,0,1-3.24-.92c-.69-1.18-1.15-3.17-.61-4.28C97.74,35.87,95.94,31.55,94.38,26.75Z"/><path class="cls-2" d="M315.93,29.24c-.25-4.24-.4-6.62-.62-10.3,3.38.93,6.05,1.42,8.45,2.5.52.23.64,3.31,0,3.79C321.73,26.73,319.25,27.62,315.93,29.24Z"/><path class="cls-2" d="M393.27,45.74c.27-1.91.64-4,.83-6.07.4-4.32.89-8.69-1.36-11.49,1.49-3.14,2.77-5.83,4.17-8.8,1.92.37,4.55.41,6.73,1.41,3.52,1.63,4.87,4.57,3.89,8.62-.57,2.36-.38,4.91-.55,7.79C402.38,38.64,402.64,48,393.27,45.74Z"/><path class="cls-2" d="M287,31.56a64.19,64.19,0,0,0-2.18,7.81c-.76,4.53-3.91,6.65-7.74,7.38-3.31.62-4.87-2.09-6.56-4.85-3.73-6.08-3.3-16.37,1.48-22a15.94,15.94,0,0,0,1.81-3.27C280.12,19.58,287,22.43,287,31.56Z"/><path class="cls-2" d="M146.4,27.2l-10.51.54-.46-8.91,3.87,3.06L145,20c.42,2.46.83,4.91,1.23,7.38A1.66,1.66,0,0,1,146.4,27.2Z"/><path class="cls-2" d="M147.8,43.09l-7.41,2.59V38l1.28-.6Z"/></g></g></svg>